<?xml version="1.0" encoding="utf-8"?>
<!-- Generator: Adobe Illustrator 18.0.0, SVG Export Plug-In . SVG Version: 6.00 Build 0)  -->
<!DOCTYPE svg PUBLIC "-//W3C//DTD SVG 1.1//EN" "http://www.w3.org/Graphics/SVG/1.1/DTD/svg11.dtd">
<svg version="1.1" id="TARDIS_Logo_Pfade" xmlns="http://www.w3.org/2000/svg" xmlns:xlink="http://www.w3.org/1999/xlink" x="0px"
	 y="0px" viewBox="0 0 306.1 306.1" enable-background="new 0 0 306.1 306.1" xml:space="preserve">
<g>
	<path d="M0.2,254L0.2,254c0-6,4.1-11.5,10.5-11.5c3.5,0,5.6,1.1,7.8,2.9l-1,1.2c-1.7-1.5-3.6-2.6-6.8-2.6c-5.1,0-8.8,4.5-8.8,9.9
		v0.1c0,5.7,3.4,9.9,9.1,9.9c2.7,0,5.2-1.2,6.8-2.5V255h-7.1v-1.5h8.6v8.5c-1.9,1.8-4.9,3.3-8.3,3.3C4.2,265.3,0.2,260.2,0.2,254z"
		/>
	<path d="M24.9,242.9h1.6v20.5h12.4v1.5h-14V242.9z"/>
	<path d="M51.7,242.8h1.5l9.9,22.2h-1.7l-2.7-6.2H46.1l-2.7,6.2h-1.6L51.7,242.8z M58,257.3l-5.6-12.7l-5.6,12.7H58z"/>
	<path d="M65.7,261.7l1-1.2c2.3,2.2,4.5,3.3,7.6,3.3c3.2,0,5.4-1.9,5.4-4.4v-0.1c0-2.3-1.2-3.7-6-4.7c-5.1-1.1-7.1-2.9-7.1-6.2v-0.1
		c0-3.3,2.9-5.8,6.8-5.8c3.1,0,5.1,0.9,7.3,2.7l-1,1.3c-2-1.8-4-2.5-6.3-2.5c-3.1,0-5.2,1.9-5.2,4.2v0.1c0,2.3,1.2,3.7,6.2,4.8
		c4.9,1,7,2.9,7,6.1v0.1c0,3.6-2.9,6-7,6C70.8,265.3,68.2,264.1,65.7,261.7z"/>
	<path d="M86.4,242.9h1.5l8.5,13l8.5-13h1.5v22h-1.6v-19.1l-8.4,12.7h-0.1L88,245.8v19.1h-1.5V242.9z"/>
	<path d="M120.8,242.8h1.5l9.9,22.2h-1.7l-2.7-6.2h-12.5l-2.7,6.2h-1.6L120.8,242.8z M127.1,257.3l-5.6-12.7l-5.6,12.7H127.1z"/>
	<path d="M136.6,242.9h1.5l14.6,19.2v-19.2h1.5v22h-1.2l-14.9-19.6v19.6h-1.5V242.9z"/>
	<path d="M160.2,255.8v-12.9h1.6v12.7c0,5.2,2.7,8.2,7.2,8.2c4.3,0,7.1-2.7,7.1-8v-12.9h1.6v12.7c0,6.3-3.5,9.7-8.7,9.7
		C163.8,265.3,160.2,262,160.2,255.8z"/>
	<path d="M183.6,242.9h14.9v1.5h-13.4v9h12v1.5h-12v10h-1.6V242.9z"/>
	<path d="M209.1,242.8h1.5l9.9,22.2h-1.7l-2.7-6.2h-12.5l-2.7,6.2h-1.6L209.1,242.8z M215.3,257.3l-5.6-12.7l-5.6,12.7H215.3z"/>
	<path d="M224.9,242.9h1.6v14.5l13.5-14.5h2.2l-9.3,9.7l9.7,12.3h-2.1l-8.7-11.1l-5.3,5.5v5.6h-1.6V242.9z"/>
	<path d="M252.1,244.4h-7.4v-1.5h16.4v1.5h-7.4v20.5h-1.6V244.4z"/>
	<path d="M265.5,255.8v-12.9h1.6v12.7c0,5.2,2.7,8.2,7.2,8.2c4.3,0,7.1-2.7,7.1-8v-12.9h1.6v12.7c0,6.3-3.5,9.7-8.7,9.7
		C269.1,265.3,265.5,262,265.5,255.8z"/>
	<path d="M288.9,242.9h8.9c2.6,0,4.7,0.8,6,2.2c1,1,1.6,2.5,1.6,4.1v0.1c0,3.7-2.6,5.8-6.2,6.3l7,9.4h-2l-6.8-9.1h-6.9v9.1h-1.6
		V242.9z M297.6,254.3c3.5,0,6.2-1.9,6.2-5v-0.1c0-3-2.2-4.8-6.1-4.8h-7.2v9.9H297.6z"/>
</g>
<polygon points="113.7,86 136.7,96.3 136.7,102.6 119.6,95.2 119.6,137.7 154.4,152.4 154.4,103.5 201.5,89.7 154.3,69.9 
	154.3,63.2 209,86.7 209,94 160.3,108.1 160.3,161.6 113.7,141.4 "/>
<polygon points="216.3,97.6 165.8,112.4 165.8,169.4 216.3,154.7 "/>
<g>
	<path d="M11.9,200H1.2v-5.5h27.3v5.5H17.9v28.4h-6V200z"/>
	<path d="M67.6,194.2h5.5l14.8,34.2h-6.3l-3.4-8.2H62.3l-3.5,8.2h-6.1L67.6,194.2z M76.1,214.9l-5.8-13.6l-5.8,13.6H76.1z"/>
	<path d="M118.9,194.4h15c4.2,0,7.6,1.3,9.7,3.4c1.8,1.8,2.8,4.4,2.8,7.3v0.1c0,5.6-3.3,8.9-8,10.3l9.1,12.8h-7l-8.3-11.8h-7.4v11.8
		h-5.9V194.4z M133.5,211.3c4.2,0,6.9-2.2,6.9-5.7v-0.1c0-3.6-2.6-5.6-7-5.6h-8.6v11.4H133.5z"/>
	<path d="M178.9,194.4h12.6c10.6,0,17.9,7.3,17.9,16.9v0.1c0,9.6-7.3,17-17.9,17h-12.6V194.4z M184.8,199.9V223h6.6
		c7.1,0,11.7-4.8,11.7-11.4v-0.1c0-6.6-4.6-11.5-11.7-11.5H184.8z"/>
	<path d="M242,194.4h5.9v33.9H242V194.4z"/>
	<path d="M279.9,223.4l3.6-4.3c3.2,2.8,6.5,4.4,10.6,4.4c3.7,0,6-1.7,6-4.3v-0.1c0-2.4-1.3-3.7-7.6-5.2c-7.2-1.7-11.2-3.9-11.2-10.1
		v-0.1c0-5.8,4.8-9.8,11.5-9.8c4.9,0,8.8,1.5,12.2,4.3l-3.2,4.5c-3-2.3-6.1-3.5-9.1-3.5c-3.5,0-5.5,1.8-5.5,4v0.1
		c0,2.6,1.5,3.8,8,5.3c7.1,1.7,10.8,4.3,10.8,9.9v0.1c0,6.4-5,10.1-12,10.1C288.8,228.9,283.9,227.1,279.9,223.4z"/>
</g>
</svg>
